<?xml version="1.0" encoding="utf-8"?>
<!-- Generator: Adobe Illustrator 17.0.0, SVG Export Plug-In . SVG Version: 6.00 Build 0)  -->
<!DOCTYPE svg PUBLIC "-//W3C//DTD SVG 1.1//EN" "http://www.w3.org/Graphics/SVG/1.1/DTD/svg11.dtd">
<svg version="1.1" id="Layer_1" xmlns="http://www.w3.org/2000/svg" xmlns:xlink="http://www.w3.org/1999/xlink" x="0px" y="0px"
	 width="16.603px" height="16.604px" viewBox="0 0 16.603 16.604" enable-background="new 0 0 16.603 16.604" xml:space="preserve">
<g>
	<circle fill="#FFC800" cx="8.301" cy="8.302" r="5.322"/>
	<g>
		<g>
			<path fill="#FFC800" d="M12.801,12.085c0.264-0.253,0.817-1.144,1.02-1.765c0.552,0.499,1.209,1.303,1.664,2.141
				C14.537,12.483,13.505,12.314,12.801,12.085z"/>
		</g>
		<g>
			<path fill="#FFC800" d="M10.304,13.828c0.42-0.163,0.357-0.129,0.931-0.43c0.487-0.324,0.136-0.046,0.842-0.588
				c0.421,1.373,0.369,2.688,0.369,2.688S11.27,14.879,10.304,13.828z"/>
		</g>
		<g>
			<path fill="#FFC800" d="M7.274,14.095C8.567,14.252,8.635,14.151,9,14.144c0.19-0.026,0.316-0.053,0.316-0.053
				c-0.194,0.887-0.623,1.866-1.024,2.513C7.817,15.815,7.464,14.928,7.274,14.095z"/>
		</g>
		<g>
			<path fill="#FFC800" d="M4.519,12.802c0.253,0.264,1.144,0.817,1.765,1.02c-0.523,0.579-1.325,1.221-2.141,1.664
				C4.12,14.525,4.294,13.492,4.519,12.802z"/>
		</g>
		<g>
			<path fill="#FFC800" d="M2.775,10.306c0.163,0.42,0.129,0.357,0.43,0.931c0.324,0.487,0.046,0.136,0.588,0.842
				c-1.373,0.421-2.688,0.369-2.688,0.369S1.725,11.271,2.775,10.306z"/>
		</g>
		<g>
			<path fill="#FFC800" d="M2.508,7.275c-0.09,0.746-0.072,0.463-0.084,1.023C2.408,8.554,2.456,8.809,2.46,9.001
				c0.026,0.19,0.053,0.316,0.053,0.316C1.631,9.124,0.655,8.699,0,8.292C0.786,7.82,1.679,7.465,2.508,7.275z"/>
		</g>
		<g>
			<path fill="#FFC800" d="M3.802,4.521c0,0-0.094,0.09-0.199,0.25C3.293,5.201,2.973,5.7,2.781,6.285
				C2.203,5.762,1.56,4.96,1.117,4.144C2.065,4.122,3.087,4.287,3.802,4.521z"/>
		</g>
		<g>
			<path fill="#FFC800" d="M6.298,2.777c-0.95,0.368-1.332,0.68-1.773,1.018C4.104,2.421,4.156,1.106,4.156,1.106
				S5.337,1.731,6.298,2.777z"/>
		</g>
		<g>
			<path fill="#FFC800" d="M9.329,2.51C8.036,2.353,7.968,2.454,7.603,2.462c-0.19,0.026-0.316,0.053-0.316,0.053
				c0.187-0.858,0.598-1.826,1.024-2.513C8.74,0.713,9.122,1.607,9.329,2.51z"/>
		</g>
		<g>
			<path fill="#FFC800" d="M12.083,3.803c-0.25-0.261-1.14-0.816-1.765-1.02c0.499-0.552,1.303-1.209,2.141-1.664
				C12.482,2.08,12.308,3.113,12.083,3.803z"/>
		</g>
		<g>
			<path fill="#FFC800" d="M13.827,6.3c-0.163-0.42-0.129-0.357-0.43-0.931c-0.324-0.487-0.046-0.136-0.588-0.842
				c1.373-0.421,2.688-0.369,2.688-0.369S14.875,5.337,13.827,6.3z"/>
		</g>
		<g>
			<path fill="#FFC800" d="M14.094,9.33c0.09-0.746,0.072-0.463,0.084-1.023c0.016-0.257-0.032-0.511-0.036-0.703
				c-0.026-0.19-0.052-0.316-0.053-0.316c0.887,0.194,1.866,0.623,2.513,1.024C15.891,8.741,14.997,9.123,14.094,9.33z"/>
		</g>
	</g>
	<path fill="#FFC800" d="M13.622,8.302c0,2.941-2.38,5.322-5.321,5.322c-0.004,0-0.004,0-0.007,0
		c-2.934-0.004-5.314-2.384-5.314-5.322c0-2.934,2.38-5.318,5.314-5.322c0.003,0,0.003,0,0.007,0
		C11.241,2.98,13.622,5.364,13.622,8.302z"/>
	<g>
		<g>
			<path fill="#FFC800" d="M15.484,12.459c-0.947,0.025-1.98-0.145-2.682-0.376c0.263-0.252,0.816-1.142,1.018-1.763
				C14.374,10.82,15.03,11.622,15.484,12.459z"/>
		</g>
		<g>
			<path fill="#FFC800" d="M12.448,15.5c0,0-1.178-0.621-2.143-1.671c0.419-0.163,0.358-0.128,0.929-0.429
				c0.49-0.323,0.139-0.046,0.844-0.589C12.497,14.184,12.448,15.5,12.448,15.5z"/>
		</g>
		<g>
			<path fill="#FFC800" d="M9.315,14.091c-0.192,0.883-0.617,1.859-1.022,2.505c0,0.004-0.004,0.004-0.004,0.007
				c-0.472-0.788-0.826-1.675-1.015-2.508c0.486,0.057,0.798,0.082,1.018,0.085c0.365,0.011,0.479-0.032,0.706-0.036
				C9.191,14.12,9.315,14.091,9.315,14.091z"/>
		</g>
		<g>
			<path fill="#FFC800" d="M4.519,12.802c0.253,0.264,1.144,0.817,1.765,1.02c-0.523,0.579-1.325,1.221-2.141,1.664
				C4.12,14.525,4.294,13.492,4.519,12.802z"/>
		</g>
		<g>
			<path fill="#FFC800" d="M2.775,10.306c0.163,0.42,0.129,0.357,0.43,0.931c0.324,0.487,0.046,0.136,0.588,0.842
				c-1.373,0.421-2.688,0.369-2.688,0.369S1.725,11.271,2.775,10.306z"/>
		</g>
		<g>
			<path fill="#FFC800" d="M2.508,7.275c-0.09,0.746-0.072,0.463-0.084,1.023C2.408,8.554,2.456,8.809,2.46,9.001
				c0.026,0.19,0.053,0.316,0.053,0.316C1.631,9.124,0.655,8.699,0,8.292C0.786,7.82,1.679,7.465,2.508,7.275z"/>
		</g>
		<g>
			<path fill="#FFC800" d="M3.802,4.521c0,0-0.094,0.09-0.199,0.25C3.293,5.201,2.973,5.7,2.781,6.285
				C2.203,5.762,1.56,4.96,1.117,4.144C2.065,4.122,3.087,4.287,3.802,4.521z"/>
		</g>
		<g>
			<path fill="#FFC800" d="M6.298,2.777c-0.95,0.368-1.332,0.68-1.773,1.018C4.104,2.421,4.156,1.106,4.156,1.106
				S5.337,1.731,6.298,2.777z"/>
		</g>
		<g>
			<path fill="#FFC800" d="M9.329,2.508c-0.497-0.06-0.816-0.082-1.036-0.085C7.939,2.416,7.825,2.458,7.601,2.462
				C7.413,2.487,7.286,2.515,7.286,2.515C7.47,1.667,7.875,0.713,8.293,0.028C8.301,0.018,8.304,0.011,8.311,0
				C8.74,0.713,9.123,1.607,9.329,2.508z"/>
		</g>
		<g>
			<path fill="#FFC800" d="M12.082,3.803c-0.248-0.259-1.139-0.816-1.763-1.022c0.5-0.55,1.302-1.206,2.139-1.664
				C12.483,2.079,12.309,3.115,12.082,3.803z"/>
		</g>
		<g>
			<path fill="#FFC800" d="M15.499,4.158c0,0-0.625,1.178-1.671,2.143c-0.163-0.422-0.128-0.358-0.429-0.933
				c-0.326-0.486-0.046-0.135-0.589-0.841C14.183,4.104,15.499,4.158,15.499,4.158z"/>
		</g>
		<g>
			<path fill="#FFC800" d="M14.179,8.309c0.014-0.259-0.032-0.511-0.035-0.706c-0.028-0.188-0.053-0.316-0.053-0.316
				c0.887,0.195,1.866,0.624,2.512,1.025c-0.709,0.429-1.603,0.813-2.508,1.018C14.186,8.585,14.165,8.866,14.179,8.309z"/>
		</g>
	</g>
	<path fill="#FFDC00" d="M9.329,2.508c-0.497-0.06-0.816-0.082-1.036-0.085V0.028C8.301,0.018,8.304,0.011,8.311,0
		C8.74,0.713,9.123,1.607,9.329,2.508z"/>
	<path fill="#FFDC00" d="M8.999,14.144c0.191-0.025,0.316-0.053,0.316-0.053c-0.192,0.883-0.617,1.859-1.022,2.505V14.18
		C8.659,14.191,8.772,14.148,8.999,14.144z"/>
	<path fill="#FFDC00" d="M8.301,13.623c-0.004,0-0.004,0-0.007,0V2.98c0.003,0,0.003,0,0.007,0c2.941,0,5.321,2.384,5.321,5.322
		C13.622,11.243,11.241,13.623,8.301,13.623z"/>
	<path fill="#FFDC00" d="M12.079,12.811c0.419,1.373,0.369,2.689,0.369,2.689s-1.178-0.621-2.143-1.671
		c0.419-0.163,0.358-0.128,0.929-0.429C11.724,13.077,11.373,13.353,12.079,12.811z"/>
	<path fill="#FFDC00" d="M12.082,3.803c-0.248-0.259-1.139-0.816-1.763-1.022c0.5-0.55,1.302-1.206,2.139-1.664
		C12.483,2.079,12.309,3.115,12.082,3.803z"/>
	<path fill="#FFDC00" d="M15.484,12.459c-0.947,0.025-1.98-0.145-2.682-0.376c0.263-0.252,0.816-1.142,1.018-1.763
		C14.374,10.82,15.03,11.622,15.484,12.459z"/>
	<path fill="#FFDC00" d="M13.398,5.368c-0.326-0.486-0.046-0.135-0.589-0.841c1.373-0.422,2.689-0.369,2.689-0.369
		s-0.625,1.178-1.671,2.143C13.665,5.878,13.7,5.942,13.398,5.368z"/>
	<path fill="#FFDC00" d="M14.179,8.309c0.014-0.259-0.032-0.511-0.035-0.706c-0.028-0.188-0.053-0.316-0.053-0.316
		c0.887,0.195,1.866,0.624,2.512,1.025c-0.709,0.429-1.603,0.813-2.508,1.018C14.186,8.585,14.165,8.866,14.179,8.309z"/>
	<path fill="#FFFFFF" d="M13.012,8.302h-0.553c0-2.293-1.865-4.158-4.158-4.158L8.295,3.59h0.006
		C10.898,3.59,13.012,5.704,13.012,8.302z"/>
	<path fill="#FFC800" d="M11.376,8.302c0,1.699-1.376,3.076-3.076,3.076c-0.004,0-0.004,0-0.004,0H8.293
		c-1.696-0.007-3.069-1.38-3.069-3.076c0-1.696,1.373-3.069,3.069-3.076h0.003c0,0,0,0,0.004,0C10,5.226,11.376,6.606,11.376,8.302z
		"/>
	<path fill="#FFDC00" d="M8.293,5.226v6.152c-1.696-0.007-3.069-1.38-3.069-3.076C5.225,6.606,6.598,5.233,8.293,5.226z"/>
</g>
</svg>
