<?xml version="1.0" encoding="utf-8"?>
<!-- Generator: Adobe Illustrator 17.0.0, SVG Export Plug-In . SVG Version: 6.00 Build 0)  -->
<!DOCTYPE svg PUBLIC "-//W3C//DTD SVG 1.1//EN" "http://www.w3.org/Graphics/SVG/1.1/DTD/svg11.dtd">
<svg version="1.1" id="Layer_1" xmlns="http://www.w3.org/2000/svg" xmlns:xlink="http://www.w3.org/1999/xlink" x="0px" y="0px"
	 width="14.065px" height="16.496px" viewBox="0 0 14.065 16.496" enable-background="new 0 0 14.065 16.496" xml:space="preserve">
<g>
	<path fill="#646464" d="M7.035,15.616c-0.204,0-0.369-0.165-0.369-0.369V0.787c0-0.204,0.165-0.369,0.369-0.369
		c0.204,0,0.369,0.165,0.369,0.369v14.46C7.404,15.451,7.239,15.616,7.035,15.616z"/>
	<path fill="#646464" d="M7.033,15.43c-0.122,0-0.222-0.099-0.222-0.222V0.792c0-0.122,0.099-0.222,0.222-0.222
		c0.122,0,0.222,0.099,0.222,0.222v14.416C7.254,15.33,7.155,15.43,7.033,15.43z"/>
	<path fill="#FF5000" d="M0.983,7.691c0.442,0,0.82,0.106,1.008,0.258c0.188-0.152,0.567-0.258,1.008-0.258
		c0.442,0,0.82,0.106,1.008,0.258c0.188-0.152,0.566-0.258,1.008-0.258c0.442,0,0.821,0.106,1.009,0.258
		c0.188-0.152,0.567-0.258,1.008-0.258c0.442,0,0.82,0.106,1.008,0.258c0.188-0.152,0.566-0.258,1.008-0.258
		c0.442,0,0.82,0.106,1.008,0.258c0.188-0.152,0.567-0.258,1.009-0.258c0.442,0,0.82,0.106,1.008,0.258
		c0.188-0.152,0.567-0.258,1.008-0.258c0.423,0,0.787,0.097,0.983,0.239c-0.116-3.541-3.219-6.378-7.032-6.378
		C3.219,1.551,0.116,4.389,0,7.93C0.196,7.788,0.56,7.691,0.983,7.691z"/>
	<path fill="#505050" d="M6.387,16.496c-0.515,0-1.036-0.423-1.036-1.233c0-0.214,0.174-0.388,0.388-0.388
		c0.214,0,0.388,0.174,0.388,0.388c0,0.454,0.27,0.544,0.41,0.381c0.07-0.081,0.108-0.216,0.108-0.381v-1.035
		c0-0.214,0.174-0.388,0.388-0.388c0.214,0,0.388,0.174,0.388,0.388v1.035c0,0.355-0.102,0.662-0.296,0.887
		C6.935,16.37,6.667,16.496,6.387,16.496z"/>
	<path fill="#FF6400" d="M7.035,1.551v6.14c0.441,0,0.818,0.106,1.006,0.258c0.188-0.152,0.566-0.258,1.008-0.258
		c0.442,0,0.82,0.106,1.008,0.258c0.188-0.152,0.567-0.258,1.009-0.258c0.442,0,0.82,0.106,1.008,0.258
		c0.188-0.152,0.567-0.258,1.008-0.258c0.423,0,0.787,0.097,0.983,0.239C13.949,4.39,10.847,1.553,7.035,1.551z"/>
	<g>
		<path fill="#96DCF0" d="M5.947,4.137c0,0.985-0.8,1.783-1.786,1.783c-0.988,0-1.786-0.798-1.786-1.783
			c0-0.988,1.786-3.512,1.786-3.512S5.947,3.15,5.947,4.137z"/>
		<path fill="#A0E6FA" d="M5.947,4.137c0,0.985-0.8,1.783-1.786,1.783V0.625C4.162,0.625,5.947,3.15,5.947,4.137z"/>
		<path fill="#FFFFFF" d="M4.162,5.428V5.182c0.577,0,1.047-0.469,1.047-1.044h0.246C5.455,4.849,4.875,5.428,4.162,5.428z"/>
	</g>
	<path fill="#96DCF0" d="M2.255,1.736c0,0.487-0.396,0.882-0.883,0.882c-0.488,0-0.883-0.394-0.883-0.882
		C0.49,1.248,1.372,0,1.372,0S2.255,1.248,2.255,1.736z"/>
	<path fill="#A0E6FA" d="M2.255,1.736c0,0.487-0.396,0.882-0.883,0.882V0C1.372,0,2.255,1.248,2.255,1.736z"/>
</g>
</svg>
