<?xml version="1.0" encoding="utf-8"?>
<!-- Generator: Adobe Illustrator 17.0.0, SVG Export Plug-In . SVG Version: 6.00 Build 0)  -->
<!DOCTYPE svg PUBLIC "-//W3C//DTD SVG 1.1//EN" "http://www.w3.org/Graphics/SVG/1.1/DTD/svg11.dtd">
<svg version="1.1" id="Layer_1" xmlns="http://www.w3.org/2000/svg" xmlns:xlink="http://www.w3.org/1999/xlink" x="0px" y="0px"
	 width="17.124px" height="15.73px" viewBox="0 0 17.124 15.73" enable-background="new 0 0 17.124 15.73" xml:space="preserve">
<g>
	<g>
		<path fill="#00AAC8" d="M17.124,6.693c0,0.781-0.316,1.489-0.829,2c-0.513,0.511-1.22,0.829-2.001,0.829H2.459
			C1.102,9.522,0,8.421,0,7.063c0-1.357,1.102-2.456,2.459-2.456c0.436,0,0.844,0.113,1.2,0.313C3.601,4.76,3.566,4.587,3.566,4.407
			c0-0.829,0.671-1.497,1.5-1.497c0.489,0,0.924,0.235,1.197,0.601c0.13-1.875,1.625-3.375,3.5-3.5C9.848,0.003,9.933,0,10.021,0
			c2.083,0,3.773,1.69,3.773,3.773c0,0.047-0.005,0.093-0.007,0.14c0.165-0.03,0.335-0.047,0.508-0.047
			C15.857,3.866,17.124,5.133,17.124,6.693z"/>
		<path fill="#00B4D2" d="M17.124,6.693c0,0.781-0.316,1.489-0.829,2c-0.513,0.511-1.22,0.829-2.001,0.829H9.763V0.01
			C9.848,0.003,9.933,0,10.021,0c2.083,0,3.773,1.69,3.773,3.773c0,0.047-0.005,0.093-0.007,0.14
			c0.165-0.03,0.335-0.047,0.508-0.047C15.857,3.866,17.124,5.133,17.124,6.693z"/>
		<path fill="#FFFFFF" d="M12.879,3.783h-0.368c0-1.378-1.121-2.499-2.499-2.499c-0.078,0-0.155,0.004-0.232,0.011L9.746,0.928
			c0.088-0.008,0.176-0.012,0.266-0.012C11.593,0.915,12.879,2.202,12.879,3.783z"/>
	</g>
	<path fill="#FFDC00" d="M13.679,8.362l0.809-2.378l-1.866,2.929c0.638,0,0.737,0,1.371,0l-0.809,2.377
		c1.786-2.804,1.458-2.29,1.866-2.929C14.403,8.362,14.327,8.362,13.679,8.362z"/>
	<g>
		<path fill="#FFDC00" d="M9.698,10.514l1.44-4.234l-3.324,5.216c1.136,0,1.313,0,2.442,0l-1.44,4.234
			c3.181-4.994,2.597-4.079,3.324-5.216C10.988,10.514,10.852,10.514,9.698,10.514z"/>
		<polygon fill="#FFF000" points="11.138,6.279 8.837,11.005 11.138,11.005 8.816,15.73 12.14,10.514 9.698,10.514 		"/>
	</g>
	<g>
		<path fill="#96DCF0" d="M6.726,12.176c0,0.485-0.394,0.879-0.88,0.879c-0.487,0-0.88-0.393-0.88-0.879
			c0-0.486,0.88-1.73,0.88-1.73S6.726,11.69,6.726,12.176z"/>
		<path fill="#A0E6FA" d="M6.726,12.176c0,0.485-0.394,0.879-0.88,0.879v-2.609C5.846,10.446,6.726,11.69,6.726,12.176z"/>
	</g>
	<g>
		<path fill="#96DCF0" d="M3.723,12.176c0,0.485-0.394,0.879-0.88,0.879c-0.487,0-0.88-0.393-0.88-0.879
			c0-0.486,0.88-1.73,0.88-1.73S3.723,11.69,3.723,12.176z"/>
		<path fill="#A0E6FA" d="M3.723,12.176c0,0.485-0.394,0.879-0.88,0.879v-2.609C2.843,10.446,3.723,11.69,3.723,12.176z"/>
	</g>
</g>
</svg>
