<?xml version="1.0" encoding="utf-8"?>
<!-- Generator: Adobe Illustrator 17.0.0, SVG Export Plug-In . SVG Version: 6.00 Build 0)  -->
<!DOCTYPE svg PUBLIC "-//W3C//DTD SVG 1.1//EN" "http://www.w3.org/Graphics/SVG/1.1/DTD/svg11.dtd">
<svg version="1.1" id="Layer_1" xmlns="http://www.w3.org/2000/svg" xmlns:xlink="http://www.w3.org/1999/xlink" x="0px" y="0px"
	 width="14.701px" height="14.701px" viewBox="0 0 14.701 14.701" enable-background="new 0 0 14.701 14.701" xml:space="preserve">
<g>
	<g>
		<path fill="#EBEBEB" d="M6.223,14.701c-0.286,0-0.519-0.232-0.519-0.519V2.774c0-0.286,0.232-0.519,0.519-0.519
			c0.286,0,0.519,0.232,0.519,0.519v11.408C6.741,14.469,6.509,14.701,6.223,14.701z"/>
		<g>
			<path fill="#EBEBEB" d="M6.223,6.769c-0.133,0-0.265-0.051-0.367-0.152L3.808,4.569c-0.203-0.203-0.203-0.531,0-0.733
				c0.203-0.203,0.531-0.203,0.733,0l2.048,2.048c0.203,0.203,0.203,0.531,0,0.733C6.488,6.718,6.355,6.769,6.223,6.769z"/>
			<path fill="#EBEBEB" d="M6.223,6.769c-0.133,0-0.265-0.051-0.367-0.152c-0.203-0.203-0.203-0.531,0-0.733l2.048-2.048
				c0.203-0.203,0.531-0.203,0.733,0c0.203,0.203,0.203,0.531,0,0.733L6.589,6.617C6.488,6.718,6.355,6.769,6.223,6.769z"/>
		</g>
		<g>
			<path fill="#EBEBEB" d="M4.174,13.256c-0.133,0-0.265-0.051-0.367-0.152c-0.203-0.203-0.203-0.531,0-0.733l2.048-2.048
				c0.203-0.203,0.531-0.203,0.733,0c0.203,0.203,0.203,0.531,0,0.733l-2.048,2.048C4.44,13.205,4.307,13.256,4.174,13.256z"/>
			<path fill="#EBEBEB" d="M8.271,13.256c-0.133,0-0.265-0.051-0.367-0.152l-2.048-2.048c-0.203-0.203-0.203-0.531,0-0.733
				c0.203-0.203,0.531-0.203,0.733,0l2.048,2.048c0.203,0.203,0.203,0.531,0,0.733C8.536,13.205,8.403,13.256,8.271,13.256z"/>
		</g>
	</g>
	<path fill="#EBEBEB" d="M11.927,8.997H0.519C0.232,8.997,0,8.765,0,8.478C0,8.192,0.232,7.96,0.519,7.96h11.408
		c0.286,0,0.519,0.232,0.519,0.519C12.445,8.765,12.213,8.997,11.927,8.997z"/>
	<g>
		<path fill="#EBEBEB" d="M8.451,8.997c-0.133,0-0.265-0.051-0.367-0.152c-0.203-0.203-0.203-0.531,0-0.733l2.048-2.048
			c0.203-0.203,0.531-0.203,0.733,0c0.203,0.203,0.203,0.531,0,0.733L8.817,8.845C8.716,8.946,8.583,8.997,8.451,8.997z"/>
		<path fill="#EBEBEB" d="M10.499,11.045c-0.133,0-0.265-0.051-0.367-0.152L8.084,8.845c-0.203-0.203-0.203-0.531,0-0.733
			c0.203-0.203,0.531-0.203,0.733,0l2.048,2.048c0.203,0.203,0.203,0.531,0,0.733C10.764,10.995,10.632,11.045,10.499,11.045z"/>
	</g>
	<g>
		<path fill="#EBEBEB" d="M4.012,8.997c-0.133,0-0.265-0.051-0.367-0.152L1.597,6.797c-0.203-0.203-0.203-0.531,0-0.733
			c0.203-0.203,0.531-0.203,0.733,0l2.048,2.048c0.203,0.203,0.203,0.531,0,0.733C4.277,8.946,4.145,8.997,4.012,8.997z"/>
		<path fill="#EBEBEB" d="M1.964,11.045c-0.133,0-0.265-0.051-0.367-0.152c-0.203-0.203-0.203-0.531,0-0.733l2.048-2.048
			c0.203-0.203,0.531-0.203,0.733,0c0.203,0.203,0.203,0.531,0,0.733L2.33,10.893C2.229,10.995,2.096,11.045,1.964,11.045z"/>
	</g>
	<g>
		<circle fill="#FFFFFF" cx="6.223" cy="8.478" r="1.141"/>
		<path fill="#EBEBEB" d="M6.223,10.138c-0.915,0-1.659-0.744-1.659-1.659c0-0.915,0.744-1.659,1.659-1.659s1.659,0.744,1.659,1.659
			C7.882,9.393,7.137,10.138,6.223,10.138z M6.223,7.856C5.879,7.856,5.6,8.135,5.6,8.478c0,0.343,0.279,0.622,0.622,0.622
			c0.343,0,0.622-0.279,0.622-0.622C6.845,8.135,6.566,7.856,6.223,7.856z"/>
	</g>
	<path fill="#F5F5F5" d="M11.927,7.96H9.702l1.163-1.163c0.203-0.203,0.203-0.531,0-0.733c-0.203-0.203-0.531-0.203-0.733,0
		L8.236,7.96H7.798C7.633,7.462,7.239,7.068,6.741,6.903V6.465l1.896-1.896c0.203-0.203,0.203-0.531,0-0.733
		c-0.203-0.203-0.531-0.203-0.733,0L6.741,4.998V2.774c0-0.286-0.232-0.519-0.519-0.519v5.597c0.345,0,0.625,0.28,0.625,0.625
		c0,0.345-0.28,0.626-0.625,0.626v5.597c0.286,0,0.519-0.232,0.519-0.519v-2.241l1.163,1.163c0.101,0.101,0.234,0.152,0.367,0.152
		c0.133,0,0.265-0.051,0.367-0.152c0.203-0.202,0.203-0.531,0-0.733l-1.896-1.896v-0.421c0.498-0.164,0.892-0.558,1.057-1.057h0.438
		l1.896,1.896c0.101,0.101,0.234,0.152,0.367,0.152c0.133,0,0.265-0.051,0.367-0.152c0.203-0.203,0.203-0.531,0-0.733L9.702,8.997
		h2.224c0.286,0,0.519-0.232,0.519-0.519C12.445,8.192,12.213,7.96,11.927,7.96z"/>
	<g>
		<path fill="#EBEBEB" d="M12.108,5.186c-0.172,0-0.311-0.139-0.311-0.311V0.311C11.797,0.139,11.936,0,12.108,0
			c0.172,0,0.311,0.139,0.311,0.311v4.563C12.419,5.046,12.28,5.186,12.108,5.186z"/>
		<path fill="#EBEBEB" d="M14.39,2.904H9.826c-0.172,0-0.311-0.139-0.311-0.311c0-0.172,0.139-0.311,0.311-0.311h4.563
			c0.172,0,0.311,0.139,0.311,0.311C14.701,2.765,14.561,2.904,14.39,2.904z"/>
		<path fill="#EBEBEB" d="M13.721,4.517c-0.08,0-0.159-0.03-0.22-0.091L10.275,1.2c-0.122-0.122-0.122-0.318,0-0.44
			c0.122-0.122,0.318-0.122,0.44,0l3.227,3.227c0.122,0.122,0.122,0.318,0,0.44C13.881,4.487,13.801,4.517,13.721,4.517z"/>
		<path fill="#EBEBEB" d="M10.495,4.517c-0.08,0-0.159-0.03-0.22-0.091c-0.122-0.122-0.122-0.318,0-0.44l3.227-3.227
			c0.122-0.122,0.318-0.122,0.44,0c0.122,0.122,0.122,0.318,0,0.44l-3.227,3.227C10.654,4.487,10.574,4.517,10.495,4.517z"/>
		<path fill="#F5F5F5" d="M12.419,4.875V3.344l1.082,1.082c0.061,0.061,0.14,0.091,0.22,0.091s0.159-0.03,0.22-0.091
			c0.122-0.121,0.122-0.319,0-0.44l-1.082-1.082h1.531c0.172,0,0.311-0.139,0.311-0.311c0-0.172-0.139-0.311-0.311-0.311h-1.531
			L13.941,1.2c0.122-0.121,0.122-0.319,0-0.44c-0.122-0.122-0.318-0.122-0.44,0l-1.082,1.082V0.311C12.419,0.139,12.28,0,12.108,0
			v5.186C12.28,5.186,12.419,5.046,12.419,4.875z"/>
	</g>
</g>
</svg>
