<?xml version="1.0" encoding="utf-8"?>
<!-- Generator: Adobe Illustrator 17.0.0, SVG Export Plug-In . SVG Version: 6.00 Build 0)  -->
<!DOCTYPE svg PUBLIC "-//W3C//DTD SVG 1.1//EN" "http://www.w3.org/Graphics/SVG/1.1/DTD/svg11.dtd">
<svg version="1.1" id="Layer_1" xmlns="http://www.w3.org/2000/svg" xmlns:xlink="http://www.w3.org/1999/xlink" x="0px" y="0px"
	 width="22.191px" height="22.191px" viewBox="0 0 22.191 22.191" enable-background="new 0 0 22.191 22.191" xml:space="preserve">
<g>
	<g>
		<path fill="#FFFFFF" d="M14.979,13.684c2.127-1.294,3.514-3.606,3.514-6.287C18.492,3.329,15.164,0,11.095,0
			S3.698,3.329,3.698,7.397c0,2.681,1.387,4.993,3.514,6.287C3.514,15.071,0.74,18.308,0,22.191h1.849
			c0.925-4.253,4.716-7.397,9.246-7.397s8.322,3.144,9.246,7.397h1.849C21.451,18.215,18.677,14.979,14.979,13.684z M5.548,7.397
			c0-3.051,2.497-5.548,5.548-5.548s5.548,2.497,5.548,5.548s-2.497,5.548-5.548,5.548S5.548,10.448,5.548,7.397z"/>
	</g>
</g>
</svg>
