<?xml version="1.0" encoding="utf-8"?>
<!-- Generator: Adobe Illustrator 17.0.0, SVG Export Plug-In . SVG Version: 6.00 Build 0)  -->
<!DOCTYPE svg PUBLIC "-//W3C//DTD SVG 1.1//EN" "http://www.w3.org/Graphics/SVG/1.1/DTD/svg11.dtd">
<svg version="1.1" id="Layer_1" xmlns="http://www.w3.org/2000/svg" xmlns:xlink="http://www.w3.org/1999/xlink" x="0px" y="0px"
	 width="25.317px" height="18.612px" viewBox="0 0 25.317 18.612" enable-background="new 0 0 25.317 18.612" xml:space="preserve">
<path fill="#FFFFFF" d="M24.392,18.612c0.511,0,0.926-0.415,0.926-0.926V0.926C25.317,0.415,24.902,0,24.392,0H0.927
	C0.416,0,0,0.415,0,0.926v16.761c0,0.511,0.416,0.926,0.927,0.926H24.392z M2.525,2.382c0.097-0.314,0.388-0.529,0.717-0.529h18.833
	c0.329,0,0.62,0.215,0.717,0.529s-0.022,0.655-0.294,0.841l-9.416,6.421c-0.128,0.086-0.275,0.13-0.423,0.13
	s-0.295-0.043-0.423-0.13L2.819,3.223C2.548,3.037,2.429,2.696,2.525,2.382z M1.852,6.185c0-0.277,0.153-0.532,0.398-0.662
	c0.246-0.13,0.542-0.114,0.772,0.041l9.213,6.24c0.207,0.121,0.601,0.145,0.882-0.023l9.176-6.217
	c0.23-0.155,0.526-0.171,0.772-0.041c0.245,0.13,0.398,0.385,0.398,0.662v8.988c0,0.876-0.712,1.588-1.588,1.588H3.44
	c-0.876,0-1.588-0.712-1.588-1.588V6.185z"/>
</svg>
