<?xml version="1.0" encoding="utf-8"?>
<!-- Generator: Adobe Illustrator 17.0.0, SVG Export Plug-In . SVG Version: 6.00 Build 0)  -->
<!DOCTYPE svg PUBLIC "-//W3C//DTD SVG 1.1//EN" "http://www.w3.org/Graphics/SVG/1.1/DTD/svg11.dtd">
<svg version="1.1" id="Layer_1" xmlns="http://www.w3.org/2000/svg" xmlns:xlink="http://www.w3.org/1999/xlink" x="0px" y="0px"
	 width="25.324px" height="23.486px" viewBox="0 0 25.324 23.486" enable-background="new 0 0 25.324 23.486" xml:space="preserve">
<g>
	<path fill="#FFFFFF" d="M25.136,9.729L25.136,9.729l-3.234-2.144V0.419C21.902,0.188,21.715,0,21.483,0H3.84
		C3.608,0,3.421,0.188,3.421,0.419v7.166L0.188,9.729l0,0C0.075,9.804,0,9.932,0,10.078v12.988c0,0.232,0.188,0.419,0.419,0.419
		h24.485c0.232,0,0.419-0.188,0.419-0.419V10.078C25.324,9.932,25.249,9.804,25.136,9.729L25.136,9.729z M3.421,11.196l-1.316-0.698
		h1.316V11.196z M0.839,10.775l9.645,5.116l-9.645,6.393V10.775z M12.662,15.455l10.851,7.193H1.811L12.662,15.455L12.662,15.455z
		 M14.84,15.892l9.645-5.116v11.51L14.84,15.892L14.84,15.892z M21.902,10.498h1.316l-1.316,0.698V10.498z M23.513,9.659h-1.61
		V8.591L23.513,9.659z M21.063,0.839v10.802l-7.02,3.724l-1.15-0.763c-0.14-0.093-0.323-0.093-0.463,0l-1.15,0.762L4.26,11.64V0.839
		L21.063,0.839L21.063,0.839z M3.421,9.659h-1.61l1.61-1.067V9.659z"/>
	<path fill="#FFFFFF" d="M12.662,11.03h3.342c0.232,0,0.419-0.188,0.419-0.419c0-0.232-0.188-0.419-0.419-0.419h-3.342
		c-1.611,0-2.922-1.311-2.922-2.922V7.145c0-1.611,1.311-2.922,2.922-2.922s2.922,1.311,2.922,2.922v0.309
		c0,0.349-0.284,0.633-0.633,0.633c-0.349,0-0.633-0.284-0.633-0.633V6.867c0-0.999-0.813-1.812-1.812-1.812
		s-1.812,0.813-1.812,1.812c0,0.999,0.813,1.812,1.812,1.812c0.457,0,0.874-0.17,1.193-0.45c0.26,0.418,0.723,0.698,1.251,0.698
		c0.811,0,1.471-0.66,1.471-1.471V7.145c0-2.074-1.687-3.761-3.761-3.761S8.901,5.071,8.901,7.145v0.124
		C8.901,9.343,10.588,11.03,12.662,11.03L12.662,11.03z M12.507,7.84c-0.536,0-0.973-0.436-0.973-0.973s0.436-0.973,0.973-0.973
		S13.48,6.33,13.48,6.867S13.043,7.84,12.507,7.84z"/>
</g>
</svg>
