<?xml version="1.0" encoding="utf-8"?>
<!-- Generator: Adobe Illustrator 17.0.0, SVG Export Plug-In . SVG Version: 6.00 Build 0)  -->
<!DOCTYPE svg PUBLIC "-//W3C//DTD SVG 1.1//EN" "http://www.w3.org/Graphics/SVG/1.1/DTD/svg11.dtd">
<svg version="1.1" id="Layer_1" xmlns="http://www.w3.org/2000/svg" xmlns:xlink="http://www.w3.org/1999/xlink" x="0px" y="0px"
	 width="23.023px" height="27.698px" viewBox="0 0 23.023 27.698" enable-background="new 0 0 23.023 27.698" xml:space="preserve">
<g>
	<g>
		<path fill="#FFFFFF" d="M21.048,0H5.749C4.66,0,3.774,0.887,3.774,1.975v1.262H1.975C0.886,3.237,0,4.123,0,5.212v20.51
			c0,1.089,0.886,1.975,1.975,1.975h15.299c1.089,0,1.975-0.887,1.975-1.975v-1.262h1.798c1.089,0,1.975-0.887,1.975-1.975V1.975
			C23.023,0.887,22.137,0,21.048,0z M17.67,25.722c0,0.218-0.178,0.395-0.395,0.395H1.975c-0.217,0-0.395-0.178-0.395-0.395V5.212
			c0-0.218,0.178-0.395,0.395-0.395h1.798v17.668c0,1.089,0.886,1.975,1.975,1.975H17.67L17.67,25.722L17.67,25.722z M21.443,22.485
			c0,0.218-0.177,0.395-0.395,0.395H5.749c-0.218,0-0.395-0.178-0.395-0.395V1.975c0-0.218,0.177-0.395,0.395-0.395h15.299
			c0.218,0,0.395,0.177,0.395,0.395L21.443,22.485L21.443,22.485z"/>
		<path fill="#FFFFFF" d="M19.193,4.907H7.604c-0.436,0-0.79,0.354-0.79,0.79c0,0.437,0.354,0.79,0.79,0.79h11.588
			c0.436,0,0.79-0.353,0.79-0.79C19.983,5.262,19.629,4.907,19.193,4.907z"/>
		<path fill="#FFFFFF" d="M19.193,8.668H7.604c-0.436,0-0.79,0.354-0.79,0.79c0,0.437,0.354,0.79,0.79,0.79h11.588
			c0.436,0,0.79-0.354,0.79-0.79C19.983,9.022,19.629,8.668,19.193,8.668z"/>
		<path fill="#FFFFFF" d="M19.193,12.429H7.604c-0.436,0-0.79,0.354-0.79,0.79c0,0.437,0.354,0.79,0.79,0.79h11.588
			c0.436,0,0.79-0.353,0.79-0.79C19.983,12.783,19.629,12.429,19.193,12.429z"/>
		<path fill="#FFFFFF" d="M19.193,16.19H7.604c-0.436,0-0.79,0.354-0.79,0.79c0,0.437,0.354,0.79,0.79,0.79h11.588
			c0.436,0,0.79-0.353,0.79-0.79C19.983,16.544,19.629,16.19,19.193,16.19z"/>
	</g>
</g>
</svg>
