<svg xmlns="http://www.w3.org/2000/svg" viewBox="-26 -19 352 352" width="512" height="512"><title>Karadeniz Gündemi</title><defs><linearGradient id="bgikaradeniz" x1="0" y1="0" x2="1" y2="1"><stop offset="0" stop-color="#1a8a64"/><stop offset="1" stop-color="#0b4434"/></linearGradient><clipPath id="clikaradeniz"><path d="M60,0 H240 A60,60 0 0 1 300,60 V202 A60,60 0 0 1 240,262 H60 A60,60 0 0 1 0,202 V60 A60,60 0 0 1 60,0 Z"/></clipPath></defs><path d="M60,0 H240 A60,60 0 0 1 300,60 V202 A60,60 0 0 1 240,262 H122 L64,298 Q58,301 59,295 L68,262 H60 A60,60 0 0 1 0,202 V60 A60,60 0 0 1 60,0 Z" fill="url(#bgikaradeniz)"/><g clip-path="url(#clikaradeniz)"><path d="M-10,170 L44,104 L78,134 L126,70 L170,122 L206,84 L250,128 L276,108 L310,140 V270 H-10 Z" fill="rgba(255,255,255,0.18)"/>
<path d="M106,95 L126,70 L146,96 L136,92 L126,100 L116,92 Z" fill="rgba(255,255,255,0.55)"/>
<path d="M-10,214 C60,180 120,178 170,186 C230,194 270,176 310,170 V270 H-10 Z" fill="rgba(255,255,255,0.14)"/>
<path d="M36.0,140.0 L47.0,165.2 L41.8,165.2 L53.8,187.6 L46.1,187.6 L60.0,205.8 L39.1,205.8 L39.1,210.0 L32.9,205.8 L12.0,205.8 L25.9,187.6 L18.2,187.6 L30.2,165.2 L25.0,165.2 L36.0,140.0 Z" fill="rgba(255,255,255,0.55)" stroke-linejoin="round"/>
<path d="M266.0,126.0 L278.4,154.8 L272.5,154.8 L286.0,180.4 L277.3,180.4 L293.0,201.2 L269.5,201.2 L269.5,206.0 L262.5,201.2 L239.0,201.2 L254.7,180.4 L246.0,180.4 L259.5,154.8 L253.6,154.8 L266.0,126.0 Z" fill="rgba(255,255,255,0.6)" stroke-linejoin="round"/>
<path d="M90.0,104.0 L106.1,142.9 L98.4,142.9 L115.9,177.4 L104.7,177.4 L125.0,205.5 L94.5,205.5 L94.5,212.0 L85.5,205.5 L55.0,205.5 L75.3,177.4 L64.1,177.4 L81.6,142.9 L73.9,142.9 L90.0,104.0 Z" fill="rgba(255,255,255,0.8)" stroke-linejoin="round"/>
<path d="M214.0,90.0 L231.9,133.2 L223.4,133.2 L242.9,171.6 L230.4,171.6 L253.0,202.8 L219.1,202.8 L219.1,210.0 L208.9,202.8 L175.0,202.8 L197.6,171.6 L185.1,171.6 L204.6,133.2 L196.1,133.2 L214.0,90.0 Z" fill="rgba(255,255,255,0.85)" stroke-linejoin="round"/>
<path d="M150.0,54.0 L173.0,111.6 L162.0,111.6 L187.0,162.8 L171.0,162.8 L200.0,204.4 L156.5,204.4 L156.5,214.0 L143.5,204.4 L100.0,204.4 L129.0,162.8 L113.0,162.8 L138.0,111.6 L127.0,111.6 L150.0,54.0 Z" fill="#ffffff" stroke-linejoin="round"/>
<path d="M-30.0,208.0 Q-17.0,201.0 -4.0,208.0 Q9.0,215.0 22.0,208.0 Q35.0,201.0 48.0,208.0 Q61.0,215.0 74.0,208.0 Q87.0,201.0 100.0,208.0 Q113.0,215.0 126.0,208.0 Q139.0,201.0 152.0,208.0 Q165.0,215.0 178.0,208.0 Q191.0,201.0 204.0,208.0 Q217.0,215.0 230.0,208.0 Q243.0,201.0 256.0,208.0 Q269.0,215.0 282.0,208.0 Q295.0,201.0 308.0,208.0 Q321.0,215.0 334.0,208.0 L330.0,270.0 L-30.0,270.0 Z" fill="#7fd0ff"/>
<path d="M-56.0,230.0 Q-43.0,223.0 -30.0,230.0 Q-17.0,237.0 -4.0,230.0 Q9.0,223.0 22.0,230.0 Q35.0,237.0 48.0,230.0 Q61.0,223.0 74.0,230.0 Q87.0,237.0 100.0,230.0 Q113.0,223.0 126.0,230.0 Q139.0,237.0 152.0,230.0 Q165.0,223.0 178.0,230.0 Q191.0,237.0 204.0,230.0 Q217.0,223.0 230.0,230.0 Q243.0,237.0 256.0,230.0 Q269.0,223.0 282.0,230.0 Q295.0,237.0 308.0,230.0 Q321.0,223.0 334.0,230.0 L330.0,270.0 L-56.0,270.0 Z" fill="#1e88cf"/></g></svg>