<svg xmlns="http://www.w3.org/2000/svg" viewBox="-26 -19 352 352" width="512" height="512"><title>Kıbrıs Gündemi</title><defs><linearGradient id="bgikibris" x1="0" y1="0" x2="1" y2="1"><stop offset="0" stop-color="#1a8fd0"/><stop offset="1" stop-color="#0a4a75"/></linearGradient><clipPath id="clikibris"><path d="M60,0 H240 A60,60 0 0 1 300,60 V202 A60,60 0 0 1 240,262 H60 A60,60 0 0 1 0,202 V60 A60,60 0 0 1 60,0 Z"/></clipPath></defs><path d="M60,0 H240 A60,60 0 0 1 300,60 V202 A60,60 0 0 1 240,262 H122 L64,298 Q58,301 59,295 L68,262 H60 A60,60 0 0 1 0,202 V60 A60,60 0 0 1 60,0 Z" fill="url(#bgikibris)"/><g clip-path="url(#clikibris)"><path d="M-20.0,214.0 Q-7.5,207.0 5.0,214.0 Q17.5,221.0 30.0,214.0 Q42.5,207.0 55.0,214.0 Q67.5,221.0 80.0,214.0 Q92.5,207.0 105.0,214.0 Q117.5,221.0 130.0,214.0 Q142.5,207.0 155.0,214.0 Q167.5,221.0 180.0,214.0 Q192.5,207.0 205.0,214.0 Q217.5,221.0 230.0,214.0 Q242.5,207.0 255.0,214.0 Q267.5,221.0 280.0,214.0 Q292.5,207.0 305.0,214.0 Q317.5,221.0 330.0,214.0 L320.0,270.0 L-20.0,270.0 Z" fill="rgba(255,255,255,0.18)"/>
<path d="M-45.0,234.0 Q-32.5,227.0 -20.0,234.0 Q-7.5,241.0 5.0,234.0 Q17.5,227.0 30.0,234.0 Q42.5,241.0 55.0,234.0 Q67.5,227.0 80.0,234.0 Q92.5,241.0 105.0,234.0 Q117.5,227.0 130.0,234.0 Q142.5,241.0 155.0,234.0 Q167.5,227.0 180.0,234.0 Q192.5,241.0 205.0,234.0 Q217.5,227.0 230.0,234.0 Q242.5,241.0 255.0,234.0 Q267.5,227.0 280.0,234.0 Q292.5,241.0 305.0,234.0 Q317.5,227.0 330.0,234.0 L320.0,270.0 L-45.0,270.0 Z" fill="rgba(255,255,255,0.32)"/>
<path d="M24.0,123.3 C24.2,122.3 28.4,129.2 30.5,130.0 C32.6,130.8 35.8,129.6 38.1,128.6 C40.4,127.6 43.3,125.7 45.7,123.3 C48.2,120.9 51.0,114.7 54.4,112.7 C57.8,110.7 64.1,110.0 68.5,110.0 C72.9,110.0 79.7,112.9 83.7,112.7 C87.8,112.5 93.6,111.5 95.7,108.7 C97.8,105.9 97.9,98.3 97.9,94.1 C97.9,89.9 94.1,82.0 95.7,80.8 C97.3,79.6 104.3,85.1 108.7,86.1 C113.1,87.1 120.6,87.0 125.0,87.4 C129.4,87.8 133.2,88.6 138.1,88.7 C142.9,88.9 151.4,89.3 157.6,88.7 C163.8,88.2 172.8,86.4 179.3,84.8 C185.8,83.2 195.3,80.1 201.1,78.1 C206.8,76.1 212.5,73.7 217.3,71.5 C222.2,69.3 227.9,66.5 233.6,63.5 C239.3,60.5 249.0,54.9 255.4,51.5 C261.7,48.1 273.9,41.8 276.0,40.9 C278.1,40.0 273.2,42.8 269.5,45.5 C265.7,48.3 256.7,55.0 251.0,59.5 C245.3,64.0 236.8,71.5 231.5,75.5 C226.1,79.4 219.2,82.9 215.2,86.1 C211.1,89.3 205.6,92.1 204.3,96.7 C203.0,101.3 205.0,112.1 206.5,116.7 C207.9,121.3 212.0,124.1 214.1,127.3 C216.2,130.5 221.7,136.3 220.6,137.9 C219.5,139.5 211.0,137.7 206.5,137.9 C201.9,138.1 195.1,138.5 190.2,139.3 C185.3,140.1 176.8,140.7 173.9,143.3 C171.0,145.8 173.9,153.0 170.6,156.5 C167.4,160.1 158.2,164.8 152.2,167.2 C146.1,169.6 136.5,171.1 130.4,172.5 C124.4,173.9 115.6,173.7 112.0,176.5 C108.4,179.3 108.7,189.9 106.6,191.1 C104.4,192.3 100.8,186.3 97.9,184.5 C94.9,182.7 91.1,179.9 87.0,179.1 C82.9,178.3 76.4,180.3 70.7,179.1 C65.0,177.9 53.9,173.2 49.0,171.2 C44.1,169.2 40.4,169.0 38.1,165.8 C35.8,162.7 35.1,154.3 33.8,149.9 C32.5,145.5 30.9,140.6 29.4,136.6 C28.0,132.6 23.8,124.3 24.0,123.3 Z" fill="#fff"/>
<path d="M138.67,112.85 A24.00,24.00 0 1 0 138.67,145.74 A19.50,19.50 0 1 1 138.67,112.85 Z" fill="#e30a17"/>
<path d="M133.69,129.29 L140.94,126.94 L140.94,119.31 L145.43,125.48 L152.68,123.12 L148.20,129.29 L152.68,135.46 L145.43,133.11 L140.94,139.28 L140.94,131.65 Z" fill="#e30a17"/></g></svg>